<svg width="179" height="71" viewBox="0 0 179 71" fill="none" xmlns="http://www.w3.org/2000/svg">
<path d="M53.7159 34.7073C54.7581 34.7073 55.7134 34.8405 56.5818 35.107C57.4751 35.3735 58.3311 35.6764 59.15 36.0156C59.9688 36.3306 60.7752 36.6334 61.5693 36.9241C62.3881 37.1906 63.2441 37.3239 64.1374 37.3239L70.3903 49.7529V40.631C70.3903 40.0738 70.3159 39.6256 70.167 39.2864C70.0429 38.9472 69.8817 38.6807 69.6832 38.4868C69.4846 38.2688 69.2489 38.1113 68.976 38.0144V37.2876H74.7822V38.0144C74.5093 38.1113 74.2736 38.2688 74.0751 38.4868C73.9014 38.6807 73.7401 38.9472 73.5912 39.2864C73.4423 39.6256 73.3679 40.0738 73.3679 40.631V56.8396C73.3679 57.3968 73.4423 57.845 73.5912 58.1842C73.7401 58.4992 73.9014 58.7536 74.0751 58.9474C74.2736 59.1654 74.5093 59.3229 74.7822 59.4198V60.1467H68.976L59.9688 42.1937V56.8396C59.9936 57.3968 60.0681 57.845 60.1921 58.1842C60.341 58.4992 60.5023 58.7536 60.676 58.9474C60.8993 59.1654 61.135 59.3229 61.3832 59.4198V60.1467H55.5397V59.4198C55.8126 59.3229 56.0483 59.1654 56.2468 58.9474C56.4454 58.7536 56.6066 58.4992 56.7307 58.1842C56.8796 57.845 56.954 57.3968 56.954 56.8396V39.5408C56.954 39.1289 56.892 38.717 56.7679 38.3051C56.6439 37.869 56.4454 37.4814 56.1724 37.1422C55.9243 36.803 55.6017 36.5365 55.2047 36.3427C54.8077 36.1246 54.3238 36.0156 53.7531 36.0156C53.2569 36.0156 52.8102 36.1246 52.4132 36.3427C52.041 36.5607 51.7185 36.8515 51.4455 37.2149C51.1726 37.5541 50.9617 37.9538 50.8128 38.4142C50.6639 38.8745 50.5895 39.3469 50.5895 39.8315C50.5895 40.5583 50.7011 41.1398 50.9244 41.5759C51.1726 41.9878 51.4455 42.3633 51.7433 42.7025C52.041 43.0175 52.3016 43.3324 52.5249 43.6474C52.773 43.9381 52.8971 44.3137 52.8971 44.774C52.8971 45.2586 52.7482 45.6341 52.4504 45.9006C52.1527 46.1671 51.7557 46.3004 51.2594 46.3004C49.9939 46.3004 48.9518 46.0218 48.133 45.4645C47.3141 44.883 46.731 44.1683 46.3836 43.3203C46.0611 42.4481 45.9618 41.5153 46.0859 40.522C46.2348 39.5044 46.6069 38.5716 47.2025 37.7237C47.8228 36.8515 48.6664 36.1367 49.7334 35.5795C50.8252 34.998 52.1527 34.7073 53.7159 34.7073Z" fill="#FF6950"/>
<path d="M74.9672 44.9557V44.2289H83.4533V44.9557C83.2051 45.0526 82.9694 45.2101 82.7461 45.4282C82.5724 45.622 82.4111 45.8885 82.2622 46.2277C82.1382 46.5427 82.0637 46.9788 82.0389 47.536V54.0049C82.0389 55.1678 82.2126 56.04 82.56 56.6215C82.9322 57.203 83.3664 57.4937 83.8627 57.4937C84.2349 57.4937 84.5699 57.3605 84.8676 57.0939C85.1654 56.8032 85.4259 56.4519 85.6492 56.04C85.8726 55.6282 86.0462 55.1678 86.1703 54.659C86.3192 54.126 86.4184 53.6293 86.4681 53.169V47.536C86.4681 46.9788 86.3936 46.5427 86.2447 46.2277C86.0959 45.8885 85.9222 45.622 85.7237 45.4282C85.5252 45.2101 85.2894 45.0526 85.0165 44.9557V44.2289H93.5398V44.9557C93.2669 45.0526 93.0311 45.2101 92.8326 45.4282C92.6589 45.622 92.4977 45.8885 92.3488 46.2277C92.1999 46.5427 92.1255 46.9788 92.1255 47.536V56.8032C92.1255 57.5301 92.1999 58.0388 92.3488 58.3296C92.4977 58.5961 92.721 58.7293 93.0187 58.7293C93.2669 58.7293 93.4902 58.6567 93.6887 58.5113C93.7879 58.4628 93.8748 58.4023 93.9492 58.3296L94.4703 58.9837C94.3462 59.1776 94.1725 59.3593 93.9492 59.5289C93.7507 59.65 93.4654 59.7711 93.0932 59.8923C92.7458 60.0134 92.2867 60.074 91.716 60.074C90.6243 60.074 89.6317 59.8681 88.7385 59.4562C87.8452 59.0201 87.2001 58.3538 86.803 57.4574C86.7534 57.6027 86.6418 57.8208 86.4681 58.1115C86.3192 58.4023 86.0587 58.693 85.6865 58.9837C85.3391 59.2745 84.8676 59.5289 84.2721 59.7469C83.6766 59.9407 82.9322 60.0376 82.0389 60.0376C80.8975 60.0376 79.9546 59.8317 79.2102 59.4198C78.4658 58.9837 77.8827 58.4507 77.4609 57.8208C77.0639 57.1666 76.7785 56.4519 76.6048 55.6766C76.456 54.9013 76.3815 54.1745 76.3815 53.4961V47.536C76.3815 46.9788 76.3071 46.5427 76.1582 46.2277C76.0341 45.8885 75.8729 45.622 75.6744 45.4282C75.4759 45.2101 75.2401 45.0526 74.9672 44.9557Z" fill="#FF6950"/>
<path d="M105.226 58.4386C105.002 58.7536 104.729 59.0201 104.407 59.2381C104.134 59.4562 103.786 59.65 103.365 59.8196C102.968 59.9892 102.484 60.074 101.913 60.074C101.218 60.074 100.548 59.9892 99.9032 59.8196C99.2829 59.65 98.7246 59.3956 98.2283 59.0564C97.7569 58.693 97.3723 58.2448 97.0745 57.7118C96.8016 57.1545 96.6527 56.5125 96.6279 55.7856V45.9006H94.1342V44.2289H94.8041C95.9207 44.2289 96.9008 43.9018 97.7445 43.2476C98.5881 42.5693 99.2953 41.8303 99.866 41.0308C100.536 40.1101 101.119 39.0562 101.615 37.869H102.285V44.2289H104.779V45.9006H102.285V56.8032C102.285 57.4331 102.397 57.8692 102.62 58.1115C102.868 58.3296 103.141 58.4386 103.439 58.4386C103.638 58.4386 103.811 58.4023 103.96 58.3296C104.109 58.2569 104.233 58.1842 104.332 58.1115C104.456 58.0146 104.568 57.9056 104.667 57.7844L105.226 58.4386Z" fill="#FF6950"/>
<path d="M110.089 44.556C110.536 44.4833 110.92 44.4469 111.243 44.4469C111.913 44.4469 112.347 44.6286 112.546 44.9921C112.769 45.3555 112.881 45.9733 112.881 46.8455V47.8631C112.98 46.8697 113.203 45.731 113.551 44.4469C113.923 43.1386 114.456 41.8909 115.151 40.7037C115.871 39.5165 116.776 38.5232 117.868 37.7237C118.96 36.8999 120.3 36.488 121.888 36.488C123.079 36.488 124.009 36.7788 124.679 37.3602C125.374 37.9175 125.721 38.7776 125.721 39.9405C125.721 40.3766 125.635 40.7885 125.461 41.1762C125.287 41.5396 125.052 41.8666 124.754 42.1574C124.481 42.4239 124.146 42.6419 123.749 42.8115C123.352 42.9811 122.93 43.0659 122.483 43.0659C121.813 43.0659 121.205 42.8842 120.66 42.5208C120.114 42.1332 119.717 41.6365 119.469 41.0308C119.419 40.8854 119.344 40.7522 119.245 40.631C119.072 40.3645 118.836 40.2313 118.538 40.2313C117.992 40.2313 117.409 40.6552 116.789 41.5032C116.193 42.3512 115.623 43.4172 115.077 44.7013C114.531 45.9612 114.059 47.3301 113.662 48.808C113.265 50.2859 113.005 51.6669 112.881 52.951V56.6942C112.905 57.2514 112.98 57.6996 113.104 58.0388C113.253 58.378 113.414 58.6445 113.588 58.8384C113.811 59.0564 114.047 59.2139 114.295 59.3108V60.0376H105.772V59.3108C106.045 59.2139 106.28 59.0564 106.479 58.8384C106.677 58.6445 106.839 58.378 106.963 58.0388C107.112 57.6996 107.186 57.2514 107.186 56.6942V47.3179C107.186 46.688 106.988 46.2156 106.591 45.9006C106.218 45.5856 105.821 45.4282 105.4 45.4282V44.8104C106.194 44.8104 106.975 44.7982 107.744 44.774C108.514 44.7498 109.295 44.6771 110.089 44.556ZM126.205 43.4657L126.578 44.1562C126.329 44.2773 126.118 44.459 125.945 44.7013C125.796 44.8951 125.647 45.1617 125.498 45.5008C125.374 45.84 125.312 46.2883 125.312 46.8455V56.6942C125.312 57.2514 125.386 57.6996 125.535 58.0388C125.709 58.378 125.883 58.6445 126.056 58.8384C126.23 59.0322 126.379 59.1654 126.503 59.2381C126.652 59.2866 126.726 59.3108 126.726 59.3108V60.0376H118.24V59.3108C118.513 59.2139 118.749 59.0564 118.947 58.8384C119.146 58.6445 119.307 58.378 119.431 58.0388C119.58 57.6996 119.655 57.2514 119.655 56.6942V47.3179C119.655 46.688 119.456 46.2156 119.059 45.9006C118.687 45.5856 118.29 45.4282 117.868 45.4282V44.8104C119.258 44.8104 120.672 44.7498 122.111 44.6286C123.575 44.5075 124.94 44.1199 126.205 43.4657Z" fill="#FF6950"/>
<path d="M130.938 47.3543C130.938 47.7904 131.173 48.178 131.645 48.5172C132.141 48.8322 132.749 49.1472 133.469 49.4621C134.213 49.7529 135.007 50.0557 135.851 50.3707C136.694 50.6856 137.476 51.0733 138.196 51.5336C138.94 51.994 139.548 52.5391 140.019 53.169C140.516 53.7989 140.764 54.5621 140.764 55.4586C140.764 56.1369 140.64 56.7669 140.392 57.3483C140.143 57.9298 139.734 58.4386 139.163 58.8747C138.617 59.3108 137.885 59.6621 136.967 59.9286C136.049 60.1709 134.92 60.292 133.58 60.292C132.389 60.292 131.384 60.1709 130.566 59.9286C129.747 59.6863 129.089 59.3835 128.593 59.0201C128.097 58.6567 127.737 58.2569 127.514 57.8208C127.315 57.3847 127.216 56.9849 127.216 56.6215C127.241 56.2581 127.352 55.9552 127.551 55.7129C127.774 55.4707 128.059 55.3495 128.407 55.3495C129.052 55.3495 129.523 55.507 129.821 55.822C130.119 56.1369 130.404 56.4882 130.677 56.8759C130.95 57.2393 131.273 57.5785 131.645 57.8935C132.017 58.2084 132.588 58.3659 133.357 58.3659C134.3 58.3659 135.007 58.2327 135.479 57.9662C135.95 57.6996 136.186 57.4331 136.186 57.1666C136.186 56.8032 135.962 56.5004 135.516 56.2581C135.069 55.9916 134.498 55.7372 133.804 55.4949C133.134 55.2284 132.402 54.9377 131.608 54.6227C130.838 54.2835 130.106 53.8716 129.412 53.3871C128.742 52.8783 128.183 52.2605 127.737 51.5336C127.29 50.7826 127.067 49.874 127.067 48.808C127.067 48.0569 127.241 47.3906 127.588 46.8092C127.935 46.2035 128.407 45.6947 129.002 45.2828C129.598 44.8709 130.305 44.556 131.124 44.3379C131.967 44.1199 132.873 44.0108 133.841 44.0108C135.404 44.0108 136.62 44.2652 137.488 44.774C138.357 45.2586 138.94 45.7916 139.238 46.3731C139.56 46.9545 139.635 47.4997 139.461 48.0084C139.287 48.493 138.94 48.7353 138.419 48.7353C137.749 48.7353 137.265 48.602 136.967 48.3355C136.67 48.0448 136.384 47.7298 136.111 47.3906C135.838 47.0514 135.503 46.7486 135.106 46.4821C134.709 46.1913 134.064 46.046 133.171 46.046C132.302 46.046 131.707 46.2035 131.384 46.5184C131.087 46.8334 130.938 47.112 130.938 47.3543Z" fill="#FF6950"/>
<path d="M149.575 37.2149L149.947 37.869C149.699 37.9902 149.488 38.1719 149.315 38.4142C149.166 38.608 149.017 38.8745 148.868 39.2137C148.744 39.5529 148.682 39.989 148.682 40.522V46.155C148.831 45.937 149.017 45.7189 149.24 45.5008C149.464 45.2828 149.749 45.0769 150.096 44.883C150.444 44.6892 150.865 44.5317 151.362 44.4106C151.858 44.2894 152.441 44.2289 153.111 44.2289C154.277 44.2289 155.22 44.4469 155.94 44.883C156.684 45.2949 157.255 45.8279 157.652 46.4821C158.074 47.112 158.359 47.8146 158.508 48.5899C158.682 49.341 158.768 50.0678 158.768 50.7704V56.7305C158.793 57.2878 158.868 57.736 158.992 58.0752C159.141 58.3901 159.314 58.6445 159.513 58.8384C159.711 59.0564 159.947 59.2139 160.22 59.3108V60.0376H151.697V59.3108C151.97 59.2139 152.205 59.0564 152.404 58.8384C152.602 58.6445 152.764 58.3901 152.888 58.0752C153.037 57.736 153.111 57.2878 153.111 56.7305V50.298C153.111 49.1108 152.925 48.2265 152.553 47.645C152.205 47.0636 151.796 46.7728 151.325 46.7728C150.903 46.7728 150.531 46.9424 150.208 47.2816C149.885 47.5966 149.612 47.9963 149.389 48.4809C149.166 48.9655 148.992 49.4985 148.868 50.0799C148.744 50.6372 148.682 51.1581 148.682 51.6426V56.7305C148.707 57.2878 148.781 57.736 148.905 58.0752C149.054 58.3901 149.215 58.6445 149.389 58.8384C149.612 59.0564 149.848 59.2139 150.096 59.3108V60.0376H141.61V59.3108C141.883 59.2139 142.119 59.0564 142.317 58.8384C142.516 58.6445 142.677 58.3901 142.801 58.0752C142.95 57.736 143.025 57.2878 143.025 56.7305V41.0308C143.025 40.4009 142.826 39.9284 142.429 39.6134C142.057 39.2985 141.66 39.141 141.238 39.141V38.5232C142.628 38.5232 144.042 38.4626 145.481 38.3415C146.945 38.2203 148.31 37.8448 149.575 37.2149Z" fill="#FF6950"/>
<path d="M179 58.9837C178.901 59.1776 178.752 59.3593 178.554 59.5289C178.38 59.65 178.144 59.7711 177.846 59.8923C177.549 60.0134 177.164 60.074 176.693 60.074C175.7 60.074 174.757 59.9044 173.864 59.5652C172.971 59.2018 172.276 58.6567 171.78 57.9298C171.606 58.1479 171.358 58.4023 171.035 58.693C170.738 58.9595 170.365 59.2139 169.919 59.4562C169.472 59.6742 168.939 59.8681 168.318 60.0376C167.723 60.183 167.028 60.2557 166.234 60.2557C165.291 60.2557 164.472 60.1346 163.777 59.8923C163.083 59.6258 162.5 59.2866 162.028 58.8747C161.581 58.4386 161.246 57.9419 161.023 57.3847C160.8 56.8274 160.688 56.2339 160.688 55.6039C160.688 54.6106 160.936 53.8111 161.433 53.2054C161.954 52.5754 162.599 52.0788 163.368 51.7153C164.137 51.3277 164.968 51.0369 165.862 50.8431C166.755 50.6251 167.586 50.4434 168.355 50.298C169.149 50.1526 169.807 49.9951 170.328 49.8255C170.849 49.6559 171.11 49.4258 171.11 49.135V49.0624C171.11 48.602 171.072 48.1538 170.998 47.7177C170.948 47.2816 170.837 46.894 170.663 46.5548C170.514 46.1913 170.303 45.9006 170.03 45.6826C169.782 45.4645 169.447 45.3555 169.025 45.3555C168.579 45.3555 168.244 45.4766 168.02 45.7189C167.797 45.937 167.623 46.2156 167.499 46.5548C167.375 46.8697 167.264 47.2332 167.164 47.645C167.09 48.0327 166.978 48.3961 166.829 48.7353C166.705 49.0503 166.507 49.3289 166.234 49.5712C165.986 49.7892 165.614 49.8982 165.117 49.8982C164.596 49.8982 164.125 49.765 163.703 49.4985C163.281 49.2077 162.971 48.8564 162.772 48.4446C162.574 48.0084 162.524 47.5481 162.624 47.0636C162.748 46.579 163.058 46.1308 163.554 45.7189C164.05 45.2828 164.782 44.9315 165.75 44.665C166.743 44.3742 168.008 44.2289 169.546 44.2289C170.688 44.2289 171.705 44.3742 172.598 44.665C173.492 44.9315 174.236 45.307 174.832 45.7916C175.452 46.2519 175.911 46.7849 176.209 47.3906C176.531 47.9721 176.693 48.5778 176.693 49.2077V56.8032C176.693 57.5301 176.767 58.0388 176.916 58.3296C177.065 58.5961 177.276 58.7293 177.549 58.7293C177.797 58.7293 178.02 58.6567 178.219 58.5113C178.318 58.4628 178.392 58.4023 178.442 58.3296L179 58.9837ZM171.11 51.0975C170.787 51.5336 170.316 51.8849 169.695 52.1514C168.901 52.4664 168.269 52.951 167.797 53.6051C167.326 54.2593 167.028 54.9134 166.904 55.5676C166.78 56.1975 166.842 56.7548 167.09 57.2393C167.338 57.7239 167.772 57.9662 168.393 57.9662C168.839 57.9662 169.224 57.845 169.546 57.6027C169.894 57.3605 170.179 57.0818 170.403 56.7669C170.651 56.4277 170.874 56.04 171.072 55.6039L171.11 51.0975Z" fill="#FF6950"/>
<path d="M19.7439 54.8081C14.0151 37.5392 20.8304 23.6156 34.2139 14.6282C32.6668 16.1894 31.0502 17.69 29.5861 19.3293C28.0841 20.9609 26.6955 22.6933 25.4299 24.5144C24.176 26.3759 23.1971 28.4189 22.0987 30.386L22.5081 30.6475C22.7468 30.286 22.9943 29.9288 23.2266 29.5615C25.2249 26.3533 27.4053 23.2857 30.4008 20.926C31.2899 20.2348 32.283 19.6891 33.3431 19.3092C34.3448 18.9483 34.8726 19.5732 34.4336 20.5703C34.0009 21.4129 33.4806 22.2075 32.8814 22.9411C30.4995 26.1345 27.9566 29.2128 25.7289 32.5094C21.1879 39.2275 18.5786 46.5351 19.7439 54.8081Z" fill="#FF6950"/>
<path d="M16.8896 36.6965C16.155 17.6754 26.6859 6.05585 42.7328 0.988404C36.3027 4.19978 30.4234 7.5028 26.4 13.3108C26.6675 13.1028 26.9506 12.911 27.2035 12.6831C30.2951 9.92758 33.5315 7.38471 37.4926 5.97693C38.2576 5.7052 39.0636 5.56707 39.8754 5.5686C40.8577 5.57811 41.1738 6.26212 40.5548 7.02917C40.0191 7.63798 39.4147 8.1826 38.7535 8.65209C34.9988 11.5635 31.0744 14.2736 27.5071 17.3951C21.67 22.5013 17.7676 28.7972 16.8896 36.6965Z" fill="#22DEBD"/>
<path d="M32.2246 27.8914C28.334 33.651 24.7842 39.2423 24.1483 46.1038C24.7115 44.6506 25.2333 43.1802 25.843 41.7474C27.1048 38.7754 28.5638 35.91 30.9083 33.6017C31.6194 32.9012 32.4627 31.7967 33.4949 32.5148C33.8571 32.7657 33.5596 34.368 33.1957 35.1894C31.5842 38.8329 29.7027 42.3581 28.1702 46.0348C24.9082 53.8547 23.6227 61.8506 26.8514 70.281C17.9892 59.9196 20.952 36.3816 32.2246 27.8914Z" fill="#FFCB51"/>
</svg>
