<svg width="89" height="19" viewBox="0 0 89 19" fill="none" xmlns="http://www.w3.org/2000/svg">
<path d="M22.1018 3.43359C22.6583 3.43359 23.1684 3.5013 23.6321 3.63672C24.1091 3.77214 24.5662 3.92602 25.0035 4.09837C25.4407 4.2584 25.8713 4.41229 26.2953 4.56001C26.7325 4.69543 27.1896 4.76314 27.6666 4.76314L31.0055 11.0785V6.44354C31.0055 6.16039 30.9657 5.93265 30.8862 5.7603C30.82 5.58795 30.7339 5.45253 30.6279 5.35405C30.5219 5.24325 30.396 5.16323 30.2502 5.11399V4.74467H33.3506V5.11399C33.2049 5.16323 33.079 5.24325 32.973 5.35405C32.8803 5.45253 32.7941 5.58795 32.7147 5.7603C32.6352 5.93265 32.5954 6.16039 32.5954 6.44354V14.6793C32.5954 14.9625 32.6352 15.1902 32.7147 15.3626C32.7941 15.5226 32.8803 15.6519 32.973 15.7504C33.079 15.8612 33.2049 15.9412 33.3506 15.9904V16.3597H30.2502L25.4407 7.23757V14.6793C25.4539 14.9625 25.4937 15.1902 25.5599 15.3626C25.6394 15.5226 25.7256 15.6519 25.8183 15.7504C25.9375 15.8612 26.0634 15.9412 26.1959 15.9904V16.3597H23.0757V15.9904C23.2214 15.9412 23.3473 15.8612 23.4533 15.7504C23.5593 15.6519 23.6454 15.5226 23.7116 15.3626C23.7911 15.1902 23.8309 14.9625 23.8309 14.6793V5.88956C23.8309 5.68028 23.7978 5.471 23.7315 5.26172C23.6653 5.04013 23.5593 4.84316 23.4135 4.67081C23.281 4.49846 23.1088 4.36305 22.8968 4.26456C22.6848 4.15376 22.4264 4.09837 22.1217 4.09837C21.8567 4.09837 21.6182 4.15376 21.4062 4.26456C21.2075 4.37536 21.0352 4.52308 20.8895 4.70774C20.7437 4.88009 20.6311 5.08321 20.5516 5.31712C20.4721 5.55102 20.4324 5.79107 20.4324 6.03729C20.4324 6.40661 20.492 6.70206 20.6113 6.92365C20.7437 7.13293 20.8895 7.32375 21.0485 7.49609C21.2075 7.65613 21.3466 7.81617 21.4658 7.97621C21.5983 8.12394 21.6646 8.31475 21.6646 8.54865C21.6646 8.79486 21.5851 8.98568 21.4261 9.12109C21.2671 9.25651 21.0551 9.32422 20.7901 9.32422C20.1144 9.32422 19.5579 9.18265 19.1207 8.8995C18.6835 8.60405 18.3721 8.24089 18.1866 7.81001C18.0144 7.36683 17.9614 6.89287 18.0276 6.38814C18.1071 5.87109 18.3058 5.39714 18.6238 4.96626C18.9551 4.52308 19.4055 4.15992 19.9753 3.87678C20.5583 3.58132 21.2671 3.43359 22.1018 3.43359Z" fill="white"/>
<path d="M33.4494 8.64098V8.27166H37.9807V8.64098C37.8482 8.69022 37.7223 8.77024 37.6031 8.88104C37.5103 8.97952 37.4242 9.11494 37.3447 9.28729C37.2785 9.44733 37.2387 9.66892 37.2255 9.95206V13.239C37.2255 13.8299 37.3182 14.2731 37.5037 14.5685C37.7025 14.864 37.9343 15.0117 38.1993 15.0117C38.3981 15.0117 38.5769 14.944 38.7359 14.8086C38.8949 14.6609 39.034 14.4824 39.1533 14.2731C39.2725 14.0638 39.3653 13.8299 39.4315 13.5714C39.511 13.3005 39.564 13.0482 39.5905 12.8143V9.95206C39.5905 9.66892 39.5508 9.44733 39.4713 9.28729C39.3918 9.11494 39.299 8.97952 39.193 8.88104C39.087 8.77024 38.9612 8.69022 38.8154 8.64098V8.27166H43.3666V8.64098C43.2209 8.69022 43.095 8.77024 42.989 8.88104C42.8963 8.97952 42.8101 9.11494 42.7306 9.28729C42.6511 9.44733 42.6114 9.66892 42.6114 9.95206V14.6609C42.6114 15.0302 42.6511 15.2887 42.7306 15.4364C42.8101 15.5719 42.9294 15.6396 43.0884 15.6396C43.2209 15.6396 43.3401 15.6026 43.4461 15.5288C43.4991 15.5041 43.5455 15.4734 43.5852 15.4364L43.8635 15.7688C43.7972 15.8673 43.7045 15.9596 43.5852 16.0458C43.4792 16.1074 43.3269 16.1689 43.1281 16.2305C42.9426 16.292 42.6975 16.3228 42.3928 16.3228C41.8098 16.3228 41.2798 16.2182 40.8028 16.0089C40.3259 15.7873 39.9814 15.4487 39.7694 14.9933C39.7429 15.0671 39.6833 15.1779 39.5905 15.3256C39.511 15.4734 39.3719 15.6211 39.1732 15.7688C38.9877 15.9165 38.7359 16.0458 38.4179 16.1566C38.0999 16.2551 37.7025 16.3043 37.2255 16.3043C36.616 16.3043 36.1125 16.1997 35.715 15.9904C35.3176 15.7688 35.0062 15.498 34.7809 15.1779C34.569 14.8455 34.4166 14.4824 34.3238 14.0884C34.2443 13.6945 34.2046 13.3252 34.2046 12.9805V9.95206C34.2046 9.66892 34.1648 9.44733 34.0854 9.28729C34.0191 9.11494 33.933 8.97952 33.827 8.88104C33.721 8.77024 33.5951 8.69022 33.4494 8.64098Z" fill="white"/>
<path d="M49.6065 15.4918C49.4872 15.6519 49.3415 15.7873 49.1693 15.8981C49.0235 16.0089 48.838 16.1074 48.6128 16.1935C48.4008 16.2797 48.1424 16.3228 47.8377 16.3228C47.4667 16.3228 47.109 16.2797 46.7645 16.1935C46.4332 16.1074 46.1351 15.9781 45.8701 15.8058C45.6184 15.6211 45.413 15.3933 45.254 15.1225C45.1083 14.8394 45.0288 14.5131 45.0155 14.1438V9.12109H43.684V8.27166H44.0417C44.6379 8.27166 45.1613 8.10547 45.6118 7.77308C46.0623 7.42839 46.4399 7.05291 46.7446 6.64666C47.1023 6.17886 47.4137 5.64335 47.6787 5.04013H48.0364V8.27166H49.368V9.12109H48.0364V14.6609C48.0364 14.9809 48.0961 15.2025 48.2153 15.3256C48.3478 15.4364 48.4935 15.4918 48.6525 15.4918C48.7585 15.4918 48.8513 15.4734 48.9308 15.4364C49.0103 15.3995 49.0765 15.3626 49.1295 15.3256C49.1958 15.2764 49.2554 15.221 49.3084 15.1594L49.6065 15.4918Z" fill="white"/>
<path d="M52.2035 8.43786C52.442 8.40092 52.6474 8.38246 52.8196 8.38246C53.1773 8.38246 53.4092 8.47479 53.5152 8.65945C53.6344 8.84411 53.6941 9.15803 53.6941 9.60121V10.1183C53.7471 9.61352 53.8663 9.03492 54.0518 8.38246C54.2505 7.71768 54.5354 7.08369 54.9064 6.48047C55.2906 5.87725 55.7742 5.37251 56.3572 4.96626C56.9402 4.5477 57.6557 4.33842 58.5036 4.33842C59.1396 4.33842 59.6365 4.48615 59.9942 4.78161C60.3652 5.06475 60.5507 5.50178 60.5507 6.09268C60.5507 6.31428 60.5043 6.52356 60.4115 6.72053C60.3188 6.90518 60.1929 7.07138 60.0339 7.21911C59.8882 7.35452 59.7093 7.46532 59.4973 7.55149C59.2853 7.63767 59.0601 7.68075 58.8216 7.68075C58.4639 7.68075 58.1393 7.58842 57.8478 7.40376C57.5563 7.20679 57.3443 6.95443 57.2118 6.64666C57.1853 6.5728 57.1455 6.50509 57.0926 6.44354C56.9998 6.30812 56.8739 6.24041 56.7149 6.24041C56.4235 6.24041 56.1121 6.45585 55.7809 6.88672C55.4629 7.31759 55.1581 7.85926 54.8666 8.51172C54.5752 9.15187 54.3234 9.84742 54.1114 10.5984C53.8994 11.3493 53.7603 12.051 53.6941 12.7035V14.6055C53.7073 14.8886 53.7471 15.1164 53.8133 15.2887C53.8928 15.4611 53.9789 15.5965 54.0717 15.695C54.1909 15.8058 54.3168 15.8858 54.4493 15.935V16.3043H49.8981V15.935C50.0438 15.8858 50.1697 15.8058 50.2757 15.695C50.3817 15.5965 50.4678 15.4611 50.5341 15.2887C50.6136 15.1164 50.6533 14.8886 50.6533 14.6055V9.84126C50.6533 9.52119 50.5473 9.28113 50.3353 9.12109C50.1366 8.96106 49.9246 8.88104 49.6993 8.88104V8.56712C50.1233 8.56712 50.5407 8.56096 50.9514 8.54865C51.3622 8.53634 51.7795 8.49941 52.2035 8.43786ZM60.809 7.88388L61.0078 8.23473C60.8753 8.29628 60.7627 8.38861 60.6699 8.51172C60.5904 8.6102 60.5109 8.74562 60.4314 8.91797C60.3652 9.09032 60.3321 9.31806 60.3321 9.60121V14.6055C60.3321 14.8886 60.3718 15.1164 60.4513 15.2887C60.544 15.4611 60.6368 15.5965 60.7295 15.695C60.8223 15.7934 60.9018 15.8612 60.968 15.8981C61.0475 15.9227 61.0873 15.935 61.0873 15.935V16.3043H56.556V15.935C56.7017 15.8858 56.8276 15.8058 56.9336 15.695C57.0396 15.5965 57.1257 15.4611 57.1919 15.2887C57.2714 15.1164 57.3112 14.8886 57.3112 14.6055V9.84126C57.3112 9.52119 57.2052 9.28113 56.9932 9.12109C56.7944 8.96106 56.5825 8.88104 56.3572 8.88104V8.56712C57.0992 8.56712 57.8544 8.53634 58.6229 8.47479C59.4046 8.41323 60.1333 8.21626 60.809 7.88388Z" fill="white"/>
<path d="M63.336 9.85973C63.336 10.0813 63.4619 10.2783 63.7136 10.4506C63.9786 10.6107 64.3032 10.7707 64.6875 10.9308C65.0849 11.0785 65.5089 11.2324 65.9594 11.3924C66.4099 11.5524 66.8272 11.7494 67.2115 11.9833C67.609 12.2172 67.9336 12.4942 68.1853 12.8143C68.4503 13.1344 68.5828 13.5221 68.5828 13.9776C68.5828 14.3223 68.5166 14.6424 68.3841 14.9379C68.2516 15.2333 68.033 15.4918 67.7282 15.7134C67.4367 15.935 67.0459 16.1135 66.5556 16.2489C66.0654 16.372 65.4626 16.4336 64.7471 16.4336C64.1111 16.4336 63.5745 16.372 63.1373 16.2489C62.7 16.1258 62.3489 15.9719 62.0839 15.7873C61.8189 15.6026 61.6268 15.3995 61.5076 15.1779C61.4016 14.9563 61.3486 14.7532 61.3486 14.5685C61.3618 14.3839 61.4215 14.23 61.5275 14.1069C61.6467 13.9838 61.7991 13.9222 61.9846 13.9222C62.329 13.9222 62.5808 14.0022 62.7398 14.1623C62.8988 14.3223 63.0511 14.5008 63.1969 14.6978C63.3426 14.8825 63.5149 15.0548 63.7136 15.2148C63.9124 15.3749 64.2171 15.4549 64.6278 15.4549C65.1313 15.4549 65.5089 15.3872 65.7607 15.2518C66.0124 15.1164 66.1383 14.9809 66.1383 14.8455C66.1383 14.6609 66.019 14.507 65.7805 14.3839C65.542 14.2485 65.2373 14.1192 64.8663 13.9961C64.5086 13.8607 64.1177 13.7129 63.6937 13.5529C63.283 13.3806 62.8922 13.1713 62.5212 12.9251C62.1634 12.6665 61.8653 12.3526 61.6268 11.9833C61.3883 11.6017 61.2691 11.14 61.2691 10.5984C61.2691 10.2167 61.3618 9.8782 61.5473 9.58274C61.7328 9.27498 61.9846 9.01645 62.3026 8.80717C62.6205 8.59789 62.9981 8.43786 63.4354 8.32706C63.8859 8.21626 64.3695 8.16087 64.8862 8.16087C65.7209 8.16087 66.3701 8.29013 66.8339 8.54865C67.2976 8.79486 67.609 9.0657 67.768 9.36115C67.9402 9.65661 67.98 9.93359 67.8872 10.1921C67.7945 10.4383 67.609 10.5614 67.3307 10.5614C66.973 10.5614 66.7146 10.4937 66.5556 10.3583C66.3966 10.2106 66.2443 10.0505 66.0985 9.8782C65.9528 9.70585 65.7739 9.55197 65.5619 9.41655C65.3499 9.26882 65.0054 9.19496 64.5285 9.19496C64.0647 9.19496 63.7467 9.27498 63.5745 9.43501C63.4155 9.59505 63.336 9.73662 63.336 9.85973Z" fill="white"/>
<path d="M73.2879 4.70774L73.4866 5.04013C73.3541 5.10168 73.2415 5.19401 73.1488 5.31712C73.0693 5.4156 72.9898 5.55102 72.9103 5.72337C72.844 5.89572 72.8109 6.11731 72.8109 6.38814V9.25036C72.8904 9.13956 72.9898 9.02876 73.109 8.91797C73.2282 8.80717 73.3806 8.70253 73.5661 8.60405C73.7516 8.50556 73.9768 8.42554 74.2418 8.36399C74.5068 8.30244 74.8182 8.27166 75.1759 8.27166C75.7986 8.27166 76.3021 8.38246 76.6864 8.60405C77.0839 8.81333 77.3886 9.08416 77.6006 9.41655C77.8258 9.73662 77.9782 10.0936 78.0577 10.4876C78.1504 10.8692 78.1968 11.2385 78.1968 11.5955V14.6239C78.2101 14.9071 78.2498 15.1348 78.3161 15.3072C78.3955 15.4672 78.4883 15.5965 78.5943 15.695C78.7003 15.8058 78.8262 15.8858 78.9719 15.935V16.3043H74.4207V15.935C74.5664 15.8858 74.6923 15.8058 74.7983 15.695C74.9043 15.5965 74.9904 15.4672 75.0567 15.3072C75.1362 15.1348 75.1759 14.9071 75.1759 14.6239V11.3555C75.1759 10.7522 75.0766 10.3029 74.8778 10.0075C74.6923 9.712 74.4737 9.56428 74.222 9.56428C73.9967 9.56428 73.798 9.65045 73.6257 9.8228C73.4535 9.98284 73.3077 10.186 73.1885 10.4322C73.0693 10.6784 72.9765 10.9492 72.9103 11.2447C72.844 11.5278 72.8109 11.7925 72.8109 12.0387V14.6239C72.8241 14.9071 72.8639 15.1348 72.9301 15.3072C73.0096 15.4672 73.0958 15.5965 73.1885 15.695C73.3077 15.8058 73.4336 15.8858 73.5661 15.935V16.3043H69.0348V15.935C69.1805 15.8858 69.3064 15.8058 69.4124 15.695C69.5184 15.5965 69.6045 15.4672 69.6708 15.3072C69.7503 15.1348 69.79 14.9071 69.79 14.6239V6.64666C69.79 6.32659 69.684 6.08653 69.472 5.92649C69.2733 5.76645 69.0613 5.68644 68.836 5.68644V5.37251C69.578 5.37251 70.3332 5.34174 71.1017 5.28019C71.8834 5.21863 72.6121 5.02782 73.2879 4.70774Z" fill="white"/>
<path d="M89 15.7688C88.947 15.8673 88.8675 15.9596 88.7615 16.0458C88.6688 16.1074 88.5429 16.1689 88.3839 16.2305C88.2249 16.292 88.0195 16.3228 87.7678 16.3228C87.2378 16.3228 86.7343 16.2366 86.2574 16.0643C85.7804 15.8796 85.4094 15.6026 85.1444 15.2333C85.0517 15.3441 84.9192 15.4734 84.7469 15.6211C84.5879 15.7565 84.3892 15.8858 84.1507 16.0089C83.9122 16.1197 83.6273 16.2182 83.2961 16.3043C82.9781 16.3782 82.6071 16.4151 82.1831 16.4151C81.6797 16.4151 81.2424 16.3536 80.8714 16.2305C80.5005 16.0951 80.1891 15.9227 79.9374 15.7134C79.6989 15.4918 79.52 15.2395 79.4008 14.9563C79.2815 14.6732 79.2219 14.3716 79.2219 14.0515C79.2219 13.5468 79.3544 13.1405 79.6194 12.8327C79.8976 12.5127 80.2421 12.2603 80.6528 12.0756C81.0636 11.8787 81.5074 11.7309 81.9844 11.6325C82.4614 11.5217 82.9052 11.4293 83.316 11.3555C83.74 11.2816 84.0911 11.2016 84.3693 11.1154C84.6475 11.0292 84.7867 10.9123 84.7867 10.7646V10.7276C84.7867 10.4937 84.7668 10.266 84.727 10.0444C84.7005 9.8228 84.6409 9.62583 84.5482 9.45348C84.4687 9.26882 84.3561 9.12109 84.2103 9.0103C84.0778 8.8995 83.8989 8.84411 83.6737 8.84411C83.4352 8.84411 83.2564 8.90566 83.1371 9.02876C83.0179 9.13956 82.9251 9.28113 82.8589 9.45348C82.7926 9.61352 82.733 9.79818 82.68 10.0075C82.6402 10.2044 82.5806 10.3891 82.5011 10.5614C82.4349 10.7215 82.3289 10.863 82.1831 10.9862C82.0506 11.0969 81.8519 11.1523 81.5869 11.1523C81.3087 11.1523 81.0569 11.0846 80.8317 10.9492C80.6065 10.8015 80.4408 10.623 80.3348 10.4137C80.2288 10.1921 80.2023 9.95822 80.2553 9.712C80.3216 9.46579 80.4872 9.23804 80.7522 9.02876C81.0172 8.80717 81.408 8.62867 81.9248 8.49325C82.4548 8.34553 83.1305 8.27166 83.9519 8.27166C84.5614 8.27166 85.1047 8.34553 85.5816 8.49325C86.0586 8.62867 86.4561 8.81948 86.7741 9.0657C87.1053 9.2996 87.3504 9.57043 87.5094 9.8782C87.6817 10.1737 87.7678 10.4814 87.7678 10.8015V14.6609C87.7678 15.0302 87.8075 15.2887 87.887 15.4364C87.9665 15.5719 88.0792 15.6396 88.2249 15.6396C88.3574 15.6396 88.4766 15.6026 88.5826 15.5288C88.6356 15.5041 88.6754 15.4734 88.7019 15.4364L89 15.7688ZM84.7867 11.7617C84.6144 11.9833 84.3627 12.1618 84.0314 12.2972C83.6075 12.4573 83.2696 12.7035 83.0179 13.0359C82.7661 13.3683 82.6071 13.7006 82.5409 14.033C82.4746 14.3531 82.5078 14.6362 82.6403 14.8825C82.7727 15.1287 83.0046 15.2518 83.3358 15.2518C83.5743 15.2518 83.7797 15.1902 83.9519 15.0671C84.1374 14.944 84.2898 14.8024 84.409 14.6424C84.5415 14.4701 84.6608 14.2731 84.7668 14.0515L84.7867 11.7617Z" fill="white"/>
<path d="M5.16801 14.3462C3.66846 9.82604 5.45238 6.18146 8.95557 3.82898C8.55063 4.23763 8.12746 4.63041 7.74423 5.05952C7.35109 5.4866 6.98761 5.94006 6.65634 6.41674C6.32812 6.90399 6.07188 7.43876 5.78437 7.95365L5.89153 8.0221C5.95401 7.92746 6.0188 7.83397 6.0796 7.73784C6.60267 6.89807 7.17339 6.09512 7.95749 5.47747C8.1902 5.29654 8.45016 5.15369 8.72765 5.05425C8.98984 4.95979 9.12798 5.12335 9.01308 5.38434C8.89981 5.6049 8.76363 5.81291 8.60678 6.00493C7.98331 6.8408 7.31771 7.64656 6.73459 8.50945C5.54598 10.2679 4.86298 12.1807 5.16801 14.3462Z" fill="white"/>
<path d="M4.42095 9.60546C4.22867 4.62661 6.98518 1.58514 11.1855 0.258718C9.50241 1.09931 7.96349 1.96389 6.91035 3.48415C6.98036 3.4297 7.05448 3.37949 7.12066 3.31984C7.9299 2.59858 8.77704 1.93298 9.81387 1.56448C10.0141 1.49336 10.2251 1.4572 10.4376 1.4576C10.6947 1.46009 10.7775 1.63913 10.6154 1.83991C10.4752 1.99927 10.317 2.14183 10.1439 2.26472C9.16112 3.02679 8.13387 3.73617 7.20013 4.55322C5.67226 5.88981 4.65078 7.53778 4.42095 9.60546Z" fill="white"/>
<path d="M8.43506 7.30066C7.41668 8.80827 6.4875 10.2718 6.32105 12.0678C6.46847 11.6874 6.60506 11.3026 6.76464 10.9275C7.09493 10.1496 7.47682 9.39958 8.09051 8.79535C8.27664 8.61201 8.49738 8.3229 8.76755 8.51086C8.86238 8.57653 8.78451 8.99595 8.68925 9.21096C8.26742 10.1647 7.77493 11.0874 7.37379 12.0498C6.51995 14.0967 6.18347 16.1896 7.02861 18.3963C4.70888 15.6842 5.48442 9.52301 8.43506 7.30066Z" fill="white"/>
</svg>
